<svg width="20" height="20" viewBox="0 0 20 20" fill="none" xmlns="http://www.w3.org/2000/svg">
<path d="M10 20C4.5 20 0 15.5 0 10C0 4.5 4.5 0 10 0C15.5 0 20 4.5 20 10C20 15.5 15.5 20 10 20Z" fill="#1BC02C"/>
<path d="M7.83333 15.0007C7.66667 15.0007 7.5 14.9173 7.33333 14.7507L3.75 11.1673C3.5 10.9173 3.5 10.4173 3.75 10.1673C4 9.91732 4.5 9.91732 4.75 10.1673L7.83333 13.2507L15.25 5.83398C15.5 5.58398 16 5.58398 16.25 5.83398C16.5 6.08398 16.5 6.58398 16.25 6.83398L8.33333 14.7507C8.16667 14.9173 8 15.0007 7.83333 15.0007Z" fill="white"/>
</svg>